<?xml version="1.0" encoding="UTF-8" standalone="no"?>
<!-- Created with Inkscape (http://www.inkscape.org/) -->

<svg
   xmlns:osb="http://www.openswatchbook.org/uri/2009/osb"
   xmlns:dc="http://purl.org/dc/elements/1.1/"
   xmlns:cc="http://creativecommons.org/ns#"
   xmlns:rdf="http://www.w3.org/1999/02/22-rdf-syntax-ns#"
   xmlns:svg="http://www.w3.org/2000/svg"
   xmlns="http://www.w3.org/2000/svg"
   xmlns:xlink="http://www.w3.org/1999/xlink"
   xmlns:sodipodi="http://sodipodi.sourceforge.net/DTD/sodipodi-0.dtd"
   xmlns:inkscape="http://www.inkscape.org/namespaces/inkscape"
   width="149.0148mm"
   height="86.125114mm"
   viewBox="0 0 149.0148 86.125114"
   version="1.1"
   id="svg8"
   inkscape:version="0.92.3 (2405546, 2018-03-11)"
   sodipodi:docname="main-question.svg">
  <sodipodi:namedview
     id="base"
     pagecolor="#ffffff"
     bordercolor="#666666"
     borderopacity="1.0"
     inkscape:pageopacity="0.0"
     inkscape:pageshadow="2"
     inkscape:zoom="2.8"
     inkscape:cx="222.05873"
     inkscape:cy="158.64394"
     inkscape:document-units="mm"
     inkscape:current-layer="layer1"
     showgrid="false"
     inkscape:object-paths="false"
     inkscape:snap-intersection-paths="false"
     inkscape:window-width="1920"
     inkscape:window-height="1146"
     inkscape:window-x="0"
     inkscape:window-y="25"
     inkscape:window-maximized="1"
     inkscape:snap-nodes="false"
     inkscape:snap-others="true"
     inkscape:snap-global="true"
     showguides="false"
     inkscape:snap-bbox="true"
     inkscape:object-nodes="false"
     fit-margin-top="0"
     fit-margin-left="0"
     fit-margin-right="0"
     fit-margin-bottom="0" />
  <defs
     id="defs2">
    <marker
       inkscape:isstock="true"
       style="overflow:visible"
       id="marker8418"
       refX="0"
       refY="0"
       orient="auto"
       inkscape:stockid="Arrow2Lend">
      <path
         inkscape:connector-curvature="0"
         transform="matrix(-1.1,0,0,-1.1,-1.1,0)"
         d="M 8.7185878,4.0337352 -2.2072895,0.01601326 8.7185884,-4.0017078 c -1.7454984,2.3720609 -1.7354408,5.6174519 -6e-7,8.035443 z"
         style="fill:#000000;fill-opacity:1;fill-rule:evenodd;stroke:#000000;stroke-width:0.625;stroke-linejoin:round;stroke-opacity:1"
         id="path8416" />
    </marker>
    <inkscape:path-effect
       is_visible="true"
       id="path-effect8414"
       effect="spiro" />
    <marker
       inkscape:stockid="Arrow2Lend"
       orient="auto"
       refY="0"
       refX="0"
       id="marker7328"
       style="overflow:visible"
       inkscape:isstock="true">
      <path
         inkscape:connector-curvature="0"
         id="path7326"
         style="fill:#000000;fill-opacity:1;fill-rule:evenodd;stroke:#000000;stroke-width:0.625;stroke-linejoin:round;stroke-opacity:1"
         d="M 8.7185878,4.0337352 -2.2072895,0.01601326 8.7185884,-4.0017078 c -1.7454984,2.3720609 -1.7354408,5.6174519 -6e-7,8.035443 z"
         transform="matrix(-1.1,0,0,-1.1,-1.1,0)" />
    </marker>
    <inkscape:path-effect
       effect="spiro"
       id="path-effect7324"
       is_visible="true" />
    <linearGradient
       inkscape:collect="always"
       id="linearGradient7174">
      <stop
         style="stop-color:#ffd5d5;stop-opacity:1;"
         offset="0"
         id="stop7170" />
      <stop
         style="stop-color:#ffd5d5;stop-opacity:0;"
         offset="1"
         id="stop7172" />
    </linearGradient>
    <linearGradient
       id="linearGradient5690"
       osb:paint="gradient">
      <stop
         style="stop-color:#fff6d5;stop-opacity:1;"
         offset="0"
         id="stop5686" />
      <stop
         style="stop-color:#fff6d5;stop-opacity:0;"
         offset="1"
         id="stop5688" />
    </linearGradient>
    <inkscape:path-effect
       effect="spiro"
       id="path-effect4129"
       is_visible="true" />
    <inkscape:path-effect
       effect="spiro"
       id="path-effect4125"
       is_visible="true" />
    <linearGradient
       gradientTransform="matrix(0.26458333,0,0,0.26458333,-5.6126601,134.97111)"
       inkscape:collect="always"
       xlink:href="#linearGradient5690"
       id="linearGradient5694"
       x1="281.46274"
       y1="446.29083"
       x2="464.29739"
       y2="446.29083"
       gradientUnits="userSpaceOnUse" />
    <linearGradient
       gradientTransform="matrix(0.26458333,0,0,0.26458333,-5.6126601,134.97111)"
       inkscape:collect="always"
       xlink:href="#linearGradient7174"
       id="linearGradient7176"
       x1="260.11429"
       y1="432.08038"
       x2="132.32999"
       y2="491.17432"
       gradientUnits="userSpaceOnUse" />
  </defs>
  <metadata
     id="metadata5">
    <rdf:RDF>
      <cc:Work
         rdf:about="">
        <dc:format>image/svg+xml</dc:format>
        <dc:type
           rdf:resource="http://purl.org/dc/dcmitype/StillImage" />
        <dc:title />
      </cc:Work>
    </rdf:RDF>
  </metadata>
  <g
     transform="translate(-0.63126947,-215.3303)"
     inkscape:label="Layer 1"
     inkscape:groupmode="layer"
     id="layer1">
    <text
       xml:space="preserve"
       style="font-style:normal;font-weight:normal;font-size:10.58333302px;line-height:1.25;font-family:sans-serif;letter-spacing:0px;word-spacing:0px;fill:#000000;fill-opacity:1;stroke:none;stroke-width:0.26458332"
       x="40.357697"
       y="103.36323"
       id="text3733"><tspan
         sodipodi:role="line"
         id="tspan3731"
         x="40.357697"
         y="112.727"
         style="stroke-width:0.26458332" /></text>
    <path
       style="fill:none;stroke:#000000;stroke-width:0.66500002;stroke-linecap:butt;stroke-linejoin:miter;stroke-miterlimit:4;stroke-dasharray:none;stroke-opacity:1"
       d="m 73.632754,226.84174 c -2.074524,-0.7676 -4.365209,-0.81734 -6.54451,-0.43851 -2.179301,0.37882 -4.265369,1.16956 -6.294803,2.04948 -4.058867,1.75984 -8.127802,3.9369 -12.551291,4.00169 -3.71052,0.0543 -7.256788,-1.39267 -10.892476,-2.1361 -1.817844,-0.37171 -3.693104,-0.56816 -5.530335,-0.30872 -1.837231,0.25944 -3.642786,1.00315 -4.958753,2.31119 -1.385256,1.37691 -2.147912,3.31045 -2.287373,5.25862 -0.13946,1.94816 0.312411,3.90839 1.094003,5.69834 1.563184,3.57991 4.359945,6.44352 6.806032,9.48916 3.946629,4.91397 7.08631,10.46743 11.358954,15.10073 3.900933,4.23021 8.721846,7.62797 14.069839,9.75187 5.347993,2.1239 11.219939,2.95938 16.933427,2.27526 6.060222,-0.72564 11.835784,-3.11529 17.907058,-3.74177 3.75691,-0.38766 7.559134,-0.0919 11.316474,-0.47534 1.87868,-0.1917 3.75034,-0.55617 5.50936,-1.2432 1.75902,-0.68703 3.40635,-1.70666 4.68936,-3.09232 1.57334,-1.69921 2.54932,-3.90299 2.95779,-6.18244 0.40846,-2.27945 0.26927,-4.63419 -0.19661,-6.90259 -0.93176,-4.53682 -3.12562,-8.69532 -4.89933,-12.97374 -1.01936,-2.45883 -1.91082,-4.98498 -3.24248,-7.28968 -1.33167,-2.30469 -3.16547,-4.41346 -5.57742,-5.53927 -1.61729,-0.75489 -3.424335,-1.03491 -5.20911,-1.04335 -1.784775,-0.008 -3.559487,0.24535 -5.323808,0.5149 -1.764322,0.26956 -3.531758,0.55601 -5.315621,0.61368 -1.783863,0.0577 -3.597011,-0.12032 -5.265753,-0.7534 -1.543681,-0.58564 -2.915464,-1.53953 -4.271605,-2.48123 -1.356141,-0.9417 -2.732582,-1.89032 -4.281019,-2.46326 z"
       id="path4123"
       inkscape:connector-curvature="0"
       inkscape:path-effect="#path-effect4125"
       inkscape:original-d="m 73.632754,226.84174 c -2.851139,-1.64789 -16.926806,3.74151 -25.390604,5.61266 -8.463801,1.87116 -14.25411,-0.0894 -21.381564,-0.13363 -7.127451,-0.0443 3.742039,13.63048 5.612662,20.44612 1.870622,6.81564 7.572901,10.06689 11.358954,15.10073 3.786055,5.03384 20.669107,8.01782 31.003266,12.02713 10.334156,4.00931 11.938301,-2.49478 17.907058,-3.74177 5.968756,-1.247 14.343724,-3.2075 21.515194,-4.81086 7.17147,-1.60335 -1.42517,-17.37278 -2.13815,-26.05877 -0.71299,-8.686 -5.87967,-8.55289 -8.8199,-12.82895 -2.94023,-4.27604 -14.075928,-0.44571 -21.114292,-0.66817 -7.038361,-0.22246 -5.701485,-3.29659 -8.552624,-4.94449 z" />
    <path
       style="fill:none;stroke:#000000;stroke-width:0.26458332px;stroke-linecap:butt;stroke-linejoin:miter;stroke-opacity:1"
       d="m 73.632754,226.84174 c -4.548586,6.86707 -6.132547,15.62836 -4.276312,23.65336 1.654194,7.15153 5.835732,13.49362 7.750815,20.57975 0.726214,2.68711 1.119224,5.4641 1.167178,8.2472"
       id="path4127"
       inkscape:connector-curvature="0"
       inkscape:path-effect="#path-effect4129"
       inkscape:original-d="m 73.632754,226.84174 c -1.425173,7.88419 -2.85061,15.76864 -4.276312,23.65336 -1.425702,7.88472 5.167476,13.71957 7.750815,20.57975 2.583341,6.86019 0.778383,5.49787 1.167178,8.2472" />
    <path
       style="fill:url(#linearGradient7176);fill-opacity:1;stroke-width:0.13363476"
       d="m 67.387706,279.76777 c -7.55668,-0.82263 -14.692084,-4.05962 -20.715422,-9.39758 -2.911054,-2.57981 -4.839671,-4.91984 -9.485056,-11.50841 -2.844993,-4.03507 -3.975708,-5.52969 -6.267688,-8.28486 -2.804631,-3.37143 -3.89364,-4.93856 -4.876358,-7.01726 -0.930746,-1.96877 -1.21457,-3.20348 -1.21317,-5.27764 0.0011,-1.54962 0.04113,-1.85271 0.371107,-2.80633 0.891776,-2.57716 2.71059,-4.24678 5.454642,-5.0072 2.228191,-0.61746 4.875075,-0.45404 8.668647,0.5352 4.850318,1.26482 5.966521,1.4814 8.040288,1.56008 3.419745,0.12976 5.569865,-0.44466 11.737655,-3.1358 5.495745,-2.39792 7.627908,-3.00788 10.557147,-3.02016 1.363094,-0.006 3.608139,0.32128 3.608139,0.52553 0,0.0324 -0.317582,0.6146 -0.705739,1.29383 -2.741557,4.79739 -4.105114,9.91677 -4.105114,15.41236 0,5.26978 0.862957,8.82723 3.773617,15.55633 0.588148,1.35974 1.536489,3.55469 2.10742,4.87767 2.35757,5.46305 3.53731,9.94262 3.640357,13.82275 l 0.03349,1.26107 -0.534541,0.11355 c -2.447139,0.51981 -7.56399,0.77179 -10.089425,0.49687 z"
       id="path4131"
       inkscape:connector-curvature="0" />
    <path
       style="fill:url(#linearGradient5694);fill-opacity:1;stroke-width:0.1;stroke-miterlimit:4;stroke-dasharray:none"
       d="m 78.414595,277.85543 c -0.350856,-4.72257 -1.346298,-8.43149 -3.77067,-14.04917 -3.672533,-8.50987 -4.192153,-9.851 -4.91713,-12.69104 -0.612926,-2.40109 -0.869106,-4.58331 -0.869106,-7.40335 0,-3.5281 0.438248,-6.36987 1.45769,-9.45224 0.842108,-2.54619 2.306638,-5.67576 3.210515,-6.8606 l 0.248576,-0.32584 0.849072,0.42117 c 0.466987,0.23164 1.901441,1.12375 3.187676,1.98247 2.616732,1.74698 3.973285,2.45135 5.545844,2.8796 0.916165,0.24949 1.422691,0.29147 3.541321,0.29352 2.144733,0.002 2.844009,-0.0558 5.278572,-0.43706 3.294827,-0.51596 6.539287,-0.68046 8.190325,-0.41526 3.1363,0.50376 5.65011,2.24114 7.70175,5.32294 1.03331,1.55216 1.73927,3.0174 3.45697,7.17502 0.69842,1.69048 1.83994,4.39658 2.53672,6.01356 2.33691,5.42313 3.16813,8.58103 3.16996,12.04304 0.002,4.16428 -1.50775,7.65173 -4.30272,9.93772 -1.0333,0.84513 -3.38508,2.01696 -4.94254,2.46275 -2.26642,0.64871 -6.05725,0.99702 -10.999608,1.01066 -4.213467,0.0116 -6.485611,0.35929 -13.229846,2.02424 -2.645968,0.65321 -4.910272,1.21025 -5.031785,1.23788 -0.188198,0.0428 -0.234362,-0.13056 -0.311586,-1.17001 z"
       id="path4135"
       inkscape:connector-curvature="0" />
    <text
       xml:space="preserve"
       style="font-style:normal;font-weight:normal;font-size:10.58333302px;line-height:1.25;font-family:sans-serif;letter-spacing:0px;word-spacing:0px;fill:#000000;fill-opacity:1;stroke:none;stroke-width:0.26458332"
       x="39.555889"
       y="81.714386"
       id="text7366"><tspan
         sodipodi:role="line"
         id="tspan7364"
         x="39.555889"
         y="91.078156"
         style="stroke-width:0.26458332" /></text>
    <g
       transform="matrix(0.91633498,0.04802308,-0.04802308,0.91633498,51.012703,183.43472)"
       id="g7628">
      <g
         style="font-style:normal;font-variant:normal;font-weight:normal;font-stretch:normal;letter-spacing:normal;word-spacing:normal;text-anchor:start;fill:none;fill-opacity:1;fill-rule:evenodd;stroke:#000000;stroke-linecap:butt;stroke-linejoin:miter;stroke-miterlimit:10.43299961;stroke-dasharray:none;stroke-dashoffset:0;stroke-opacity:1"
         word-spacing="normal"
         letter-spacing="normal"
         font-size-adjust="none"
         font-stretch="normal"
         font-weight="normal"
         font-variant="normal"
         font-style="normal"
         stroke-miterlimit="10.433"
         xml:space="preserve"
         transform="matrix(0.11714286,0,0,-0.11714286,-20.5,112.5)"
         id="content"><path
           style="fill:#000000;stroke-width:0"
           inkscape:connector-curvature="0"
           id="path7611"
           d="m 476.8,436.43 0.02,0.07 0.01,0.06 0.03,0.12 0.03,0.12 0.03,0.11 0.03,0.11 0.03,0.09 0.03,0.1 0.03,0.09 0.03,0.08 0.03,0.08 0.03,0.07 0.03,0.07 0.03,0.06 0.03,0.06 0.03,0.06 0.03,0.05 0.03,0.05 0.03,0.04 0.04,0.04 0.03,0.04 0.04,0.04 0.03,0.03 0.04,0.03 0.04,0.03 0.04,0.02 0.05,0.03 0.04,0.02 0.05,0.02 0.04,0.01 0.05,0.02 0.06,0.01 0.05,0.02 c 0.45,0.11 2.1,0.11 3.14,0.11 5.03,0 7.27,-0.21 7.27,-4.1 0,-0.73 -0.19,-2.68 -0.39,-3.98 -0.05,-0.19 -0.16,-0.8 -0.16,-0.94 0,-0.3 0.16,-0.66 0.59,-0.66 0.57,0 0.66,0.41 0.75,1.16 l 1.35,8.66 c 0.06,0.2 0.11,0.7 0.11,0.86 0,0.54 -0.5,0.54 -1.35,0.54 H 461.6 c -1.21,0 -1.25,-0.06 -1.6,-1 l -2.98,-8.76 c -0.06,-0.11 -0.3,-0.8 -0.3,-0.91 0,-0.3 0.24,-0.55 0.6,-0.55 0.5,0 0.54,0.25 0.84,1.05 2.69,7.72 3.98,8.63 11.36,8.63 h 1.94 c 1.4,0 1.4,-0.21 1.4,-0.6 0,-0.31 -0.15,-0.9 -0.2,-1.04 l -6.67,-26.61 c -0.45,-1.85 -0.61,-2.39 -5.94,-2.39 -1.8,0 -2.09,0 -2.09,-0.96 0,-0.59 0.54,-0.59 0.84,-0.59 1.36,0 2.75,0.09 4.09,0.09 1.4,0 2.85,0.07 4.24,0.07 1.39,0 2.78,-0.07 4.14,-0.07 1.44,0 2.94,-0.09 4.33,-0.09 0.5,0 1.09,0 1.09,1 0,0.55 -0.39,0.55 -1.69,0.55 -1.25,0 -1.89,0 -3.18,0.09 -1.46,0.16 -1.85,0.3 -1.85,1.09 0,0.07 0,0.32 0.19,1.05 z" /><path
           style="fill:#000000;stroke-width:0"
           inkscape:connector-curvature="0"
           id="path7613"
           d="m 509.62,437.83 v 0.71 l -0.02,0.68 -0.03,0.66 -0.04,0.64 -0.06,0.62 -0.07,0.59 -0.09,0.58 -0.11,0.56 -0.13,0.55 -0.15,0.52 -0.17,0.52 -0.19,0.5 -0.21,0.49 -0.24,0.48 -0.26,0.47 -0.14,0.23 -0.15,0.23 c -1.08,1.61 -3.23,3 -6.03,3 v -0.98 c 1.89,0 3.7,-1.15 4.33,-3.18 0.56,-1.87 0.59,-4.39 0.59,-7.42 0,-2.58 0,-5.16 -0.45,-7.34 -0.7,-3.17 -3.06,-3.94 -4.47,-3.94 v 0 c -1.59,0 -3.72,0.94 -4.42,3.8 -0.49,2.04 -0.49,4.9 -0.49,7.48 0,2.55 0,5.2 0.52,7.11 0.74,2.75 2.97,3.49 4.39,3.49 v 0.98 c -8.08,0 -8.08,-9.52 -8.08,-12.03 0,-2.5 0,-11.81 8.08,-11.81 8.09,0 8.09,9.31 8.09,11.81 z" /><path
           style="fill:#000000;stroke-width:0"
           inkscape:connector-curvature="0"
           id="path7615"
           d="m 519.34,428.7 v 0.12 l -0.01,0.11 -0.01,0.11 -0.02,0.11 -0.03,0.1 -0.03,0.1 -0.03,0.1 -0.04,0.1 -0.05,0.09 -0.05,0.08 -0.05,0.09 -0.06,0.08 -0.06,0.08 -0.06,0.07 -0.07,0.07 -0.07,0.07 -0.07,0.06 -0.07,0.06 -0.08,0.06 -0.08,0.05 -0.08,0.05 -0.08,0.04 -0.09,0.04 -0.09,0.04 -0.08,0.03 -0.09,0.03 -0.09,0.02 -0.09,0.02 -0.09,0.02 -0.08,0.01 -0.09,0.01 h -0.09 c -1.14,0 -2.02,-0.94 -2.02,-1.99 0,-1.25 1.05,-2.01 1.99,-2.01 1.14,0 2.01,0.94 2.01,1.98 z" /><path
           style="fill:#000000;stroke-width:0"
           inkscape:connector-curvature="0"
           id="path7617"
           d="m 528.72,446.16 0.17,-0.05 0.16,-0.03 0.15,-0.04 0.15,-0.03 0.15,-0.03 0.14,-0.03 0.14,-0.03 0.14,-0.03 0.13,-0.02 0.12,-0.02 0.13,-0.02 0.12,-0.02 0.11,-0.01 0.12,-0.02 0.11,-0.01 0.1,-0.01 0.1,-0.01 0.1,-0.01 0.1,-0.01 h 0.09 l 0.09,-0.01 h 0.08 l 0.08,-0.01 h 0.08 0.08 0.07 l 0.07,-0.01 h 0.06 0.07 0.06 0.05 0.06 c 4.59,0 7.31,3.14 7.31,3.68 0,0.37 -0.23,0.48 -0.41,0.48 -0.07,0 -0.14,0 -0.28,-0.11 -0.84,-0.31 -2.69,-1.02 -5.26,-1.02 -0.97,0 -2.83,0.08 -5.1,0.96 -0.34,0.17 -0.4,0.17 -0.45,0.17 -0.45,0 -0.45,-0.39 -0.45,-0.94 v -10.28 c 0,-0.59 0,-1.02 0.56,-1.02 0.31,0 0.34,0.07 0.7,0.49 1.5,1.92 3.63,2.2 4.85,2.2 2.08,0 3.03,-1.67 3.2,-1.95 0.63,-1.16 0.83,-2.47 0.83,-4.5 0,-1.05 0,-3.09 -1.05,-4.63 -0.86,-1.26 -2.36,-2.09 -4.06,-2.09 -2.27,0 -4.61,1.25 -5.49,3.55 1.33,-0.1 1.99,0.76 1.99,1.7 0,1.5 -1.28,1.78 -1.74,1.78 -0.06,0 -1.75,0 -1.75,-1.87 0,-3.14 2.86,-6.28 7.05,-6.28 4.45,0 8.36,3.31 8.36,7.7 0,3.94 -3,7.56 -7.31,7.56 -1.53,0 -3.35,-0.37 -4.88,-1.7 z" /><path
           style="fill:#000000;stroke-width:0"
           inkscape:connector-curvature="0"
           id="path7619"
           d="m 499.04,414.78 0.03,0.11 0.03,0.11 0.02,0.11 0.03,0.1 0.03,0.1 0.04,0.09 0.03,0.08 0.04,0.08 0.04,0.08 0.04,0.07 0.05,0.07 0.06,0.06 0.06,0.06 0.07,0.06 0.07,0.05 0.09,0.05 0.09,0.04 0.1,0.04 0.11,0.04 0.12,0.03 0.07,0.02 0.06,0.01 0.07,0.02 0.08,0.01 0.07,0.01 0.08,0.01 0.08,0.01 0.09,0.01 0.09,0.01 0.09,0.01 0.1,0.01 0.1,0.01 h 0.1 l 0.11,0.01 h 0.11 l 0.11,0.01 h 0.12 l 0.12,0.01 h 0.13 0.13 0.13 l 0.14,0.01 h 0.15 0.14 c 1.08,0 1.43,0 1.43,0.76 0,0.03 -0.04,0.49 -0.6,0.49 -0.79,0 -1.73,-0.07 -2.58,-0.11 -0.87,-0.03 -1.9,-0.03 -2.78,-0.03 -0.73,0 -1.67,0.03 -2.4,0.03 -0.74,0 -1.57,0.11 -2.27,0.11 -0.2,0 -0.73,0 -0.73,-0.77 0,-0.48 0.42,-0.48 1.12,-0.48 0.03,0 0.69,0 1.31,-0.08 0.74,-0.06 0.82,-0.14 0.82,-0.49 0,-0.06 0,-0.23 -0.14,-0.76 l -4.64,-18.5 c -0.32,-1.19 -0.4,-1.47 -3.07,-1.47 -0.59,0 -1.04,0 -1.04,-0.73 0,-0.52 0.42,-0.52 1.04,-0.52 h 17.52 c 0.87,0 0.9,0.03 1.19,0.7 0.36,0.94 2.96,7.69 2.96,7.97 0,0.11 -0.07,0.5 -0.59,0.5 -0.42,0 -0.48,-0.19 -0.7,-0.73 -1.31,-3.32 -2.86,-7.19 -9.24,-7.19 h -3.93 c -1.08,0 -1.11,0.05 -1.11,0.36 0,0.03 0,0.2 0.14,0.72 z" /><path
           style="fill:#000000;stroke-width:0"
           inkscape:connector-curvature="0"
           id="path7621"
           d="m 592.27,417.65 h 0.16 0.16 l 0.15,0.01 h 0.08 l 0.08,0.01 h 0.07 l 0.08,0.01 0.07,0.01 0.07,0.01 0.07,0.02 0.07,0.02 0.07,0.02 0.06,0.02 0.06,0.02 0.06,0.03 0.06,0.03 0.05,0.04 0.05,0.03 0.04,0.05 0.05,0.04 0.04,0.05 0.01,0.03 0.02,0.03 0.02,0.03 0.01,0.03 0.01,0.03 0.02,0.03 0.01,0.04 0.01,0.03 0.01,0.04 0.01,0.04 v 0.04 l 0.01,0.04 v 0.04 l 0.01,0.04 v 0.05 0.04 c 0,1 -0.91,1 -1.75,1 h -26.95 c -0.85,0 -1.74,0 -1.74,-1 0,-1 0.89,-1 1.74,-1 z" /><path
           style="fill:#000000;stroke-width:0"
           inkscape:connector-curvature="0"
           id="path7623"
           d="m 631.47,417.65 -0.26,-0.19 -0.24,-0.2 -0.24,-0.19 -0.23,-0.2 -0.22,-0.19 -0.21,-0.19 -0.2,-0.19 -0.2,-0.19 -0.19,-0.18 -0.19,-0.18 -0.17,-0.18 -0.17,-0.18 -0.16,-0.17 -0.15,-0.17 -0.15,-0.17 -0.14,-0.16 -0.13,-0.15 -0.13,-0.16 -0.12,-0.15 -0.11,-0.14 -0.11,-0.14 -0.1,-0.13 -0.09,-0.13 -0.09,-0.12 -0.08,-0.11 -0.08,-0.11 -0.07,-0.11 -0.06,-0.09 -0.06,-0.09 -0.05,-0.08 -0.05,-0.07 -0.04,-0.07 c -2.23,-3.44 -2.64,-6.58 -2.64,-6.62 0,-0.6 0.61,-0.6 1,-0.6 0.84,0 0.89,0.1 1.09,1 1.16,4.88 4.1,9.06 9.72,11.36 0.6,0.19 0.75,0.3 0.75,0.64 0,0.35 -0.3,0.5 -0.4,0.55 -2.19,0.84 -8.22,3.34 -10.11,11.72 -0.16,0.59 -0.21,0.73 -1.05,0.73 -0.39,0 -1,0 -1,-0.59 0,-0.1 0.45,-3.24 2.55,-6.58 1,-1.48 2.43,-3.23 4.58,-4.83 h -37.02 c -0.89,0 -1.8,0 -1.8,-1 0,-1 0.91,-1 1.8,-1 z" /><path
           style="fill:#000000;stroke-width:0"
           inkscape:connector-curvature="0"
           id="path7625"
           d="m 678.83,419.7 -0.25,0.31 -0.23,0.29 -0.23,0.29 -0.21,0.26 -0.2,0.26 -0.19,0.24 -0.19,0.23 -0.17,0.22 -0.17,0.2 -0.16,0.2 -0.16,0.19 -0.15,0.17 -0.14,0.17 -0.14,0.16 -0.13,0.16 -0.13,0.15 -0.13,0.14 -0.12,0.13 -0.12,0.13 -0.12,0.13 -0.23,0.23 -0.24,0.23 -0.24,0.22 -0.24,0.22 -0.26,0.22 -0.14,0.11 -0.14,0.11 c -2.8,2.25 -5.59,3.14 -8.12,3.14 -5.83,0 -9.63,-5.46 -9.63,-11.29 h 1.11 c 0,4.87 3.33,8.9 7.72,8.9 2.89,0 5.12,-2.09 6.17,-3.14 1.25,-1.34 2.39,-2.89 5.44,-6.81 v 0 c -2.05,-3.59 -5.74,-8.62 -11.36,-8.62 -5.28,0 -7.97,5.18 -7.97,9.67 h -1.11 c 0,-5.74 3.69,-11.27 9.42,-11.27 5.74,0 9.86,4.53 12.31,8.52 2.69,-3.39 3.29,-4.13 4.83,-5.38 2.78,-2.25 5.58,-3.14 8.13,-3.14 5.83,0 9.61,5.49 9.61,11.31 h -1.1 c 0,-4.89 -3.34,-8.92 -7.72,-8.92 -2.89,0 -5.14,2.1 -6.18,3.14 -1.24,1.35 -2.39,2.89 -5.43,6.83 v 0 c 2.04,3.58 5.72,8.61 11.36,8.61 5.29,0 7.97,-5.17 7.97,-9.66 h 1.1 c 0,5.72 -3.69,11.25 -9.43,11.25 -5.71,0 -9.85,-4.53 -12.29,-8.51 z" /></g>    </g>
    <g
       id="g10700"
       transform="matrix(0.90365224,-0.15933827,0.15933827,0.90365224,-14.019513,193.08949)">
      <g
         word-spacing="normal"
         letter-spacing="normal"
         font-size-adjust="none"
         font-stretch="normal"
         font-weight="normal"
         font-variant="normal"
         font-style="normal"
         stroke-miterlimit="10.433"
         xml:space="preserve"
         transform="matrix(0.12303588,0,0,-0.12303588,-21.531278,111.7611)"
         id="g10698"
         style="font-style:normal;font-variant:normal;font-weight:normal;font-stretch:normal;letter-spacing:normal;word-spacing:normal;text-anchor:start;fill:none;fill-opacity:1;fill-rule:evenodd;stroke:#000000;stroke-linecap:butt;stroke-linejoin:miter;stroke-miterlimit:10.43299961;stroke-dasharray:none;stroke-dashoffset:0;stroke-opacity:1"><path
           id="path10674"
           d="m 476.8,428.75 0.02,0.07 0.01,0.06 0.03,0.12 0.03,0.12 0.03,0.11 0.03,0.11 0.03,0.09 0.03,0.1 0.03,0.09 0.03,0.08 0.03,0.08 0.03,0.07 0.03,0.07 0.03,0.06 0.03,0.06 0.03,0.06 0.03,0.05 0.03,0.05 0.03,0.04 0.04,0.05 0.03,0.03 0.04,0.04 0.03,0.03 0.04,0.03 0.04,0.03 0.04,0.02 0.05,0.03 0.04,0.02 0.05,0.02 0.04,0.01 0.05,0.02 0.06,0.01 0.05,0.02 c 0.45,0.11 2.1,0.11 3.14,0.11 5.03,0 7.27,-0.21 7.27,-4.1 0,-0.73 -0.19,-2.68 -0.39,-3.98 -0.05,-0.19 -0.16,-0.8 -0.16,-0.94 0,-0.3 0.16,-0.65 0.59,-0.65 0.57,0 0.66,0.4 0.75,1.15 l 1.35,8.66 c 0.06,0.2 0.11,0.7 0.11,0.86 0,0.54 -0.5,0.54 -1.35,0.54 H 461.6 c -1.21,0 -1.25,-0.06 -1.6,-1 l -2.98,-8.76 c -0.06,-0.11 -0.3,-0.8 -0.3,-0.91 0,-0.29 0.24,-0.54 0.6,-0.54 0.5,0 0.54,0.25 0.84,1.04 2.69,7.72 3.98,8.63 11.36,8.63 h 1.94 c 1.4,0 1.4,-0.21 1.4,-0.6 0,-0.31 -0.15,-0.9 -0.2,-1.04 l -6.67,-26.61 c -0.45,-1.85 -0.61,-2.39 -5.94,-2.39 -1.8,0 -2.09,0 -2.09,-0.96 0,-0.59 0.54,-0.59 0.84,-0.59 1.36,0 2.75,0.09 4.09,0.09 1.4,0 2.85,0.07 4.24,0.07 1.39,0 2.78,-0.07 4.14,-0.07 1.44,0 2.94,-0.09 4.33,-0.09 0.5,0 1.09,0 1.09,1 0,0.55 -0.39,0.55 -1.69,0.55 -1.25,0 -1.89,0 -3.18,0.09 -1.46,0.16 -1.85,0.3 -1.85,1.09 0,0.07 0,0.32 0.19,1.05 z"
           inkscape:connector-curvature="0"
           style="fill:#000000;stroke-width:0" /><path
           id="path10676"
           d="m 509.62,430.27 v 0.71 l -0.02,0.68 -0.03,0.66 -0.04,0.64 -0.06,0.62 -0.07,0.59 -0.09,0.58 -0.11,0.56 -0.13,0.55 -0.15,0.53 -0.17,0.51 -0.19,0.5 -0.21,0.49 -0.24,0.48 -0.26,0.47 -0.14,0.23 -0.15,0.23 c -1.08,1.61 -3.23,3 -6.03,3 -8.08,0 -8.08,-9.51 -8.08,-12.03 0,-2.5 0,-11.81 8.08,-11.81 v 0.98 c -1.59,0 -3.72,0.94 -4.42,3.8 -0.49,2.05 -0.49,4.9 -0.49,7.48 0,2.55 0,5.21 0.52,7.11 0.74,2.75 2.97,3.49 4.39,3.49 1.89,0 3.7,-1.14 4.33,-3.18 0.56,-1.87 0.59,-4.39 0.59,-7.42 0,-2.58 0,-5.15 -0.45,-7.34 -0.7,-3.17 -3.06,-3.94 -4.47,-3.94 v 0 -0.98 c 8.09,0 8.09,9.31 8.09,11.81 z"
           inkscape:connector-curvature="0"
           style="fill:#000000;stroke-width:0" /><path
           id="path10678"
           d="m 519.34,421.14 v 0.12 l -0.01,0.11 -0.01,0.11 -0.02,0.11 -0.03,0.1 -0.03,0.11 -0.03,0.09 -0.04,0.1 -0.05,0.09 -0.05,0.09 -0.05,0.08 -0.06,0.08 -0.06,0.08 -0.06,0.07 -0.07,0.07 -0.07,0.07 -0.07,0.06 -0.07,0.06 -0.08,0.06 -0.08,0.05 -0.08,0.05 -0.08,0.04 -0.09,0.04 -0.09,0.04 -0.08,0.03 -0.09,0.03 -0.09,0.03 -0.09,0.01 -0.09,0.02 -0.08,0.01 -0.09,0.01 h -0.09 c -1.14,0 -2.02,-0.94 -2.02,-1.98 0,-1.25 1.05,-2.02 1.99,-2.02 1.14,0 2.01,0.94 2.01,1.98 z"
           inkscape:connector-curvature="0"
           style="fill:#000000;stroke-width:0" /><path
           id="path10680"
           d="m 528.72,438.6 0.17,-0.04 0.16,-0.04 0.15,-0.04 0.15,-0.03 0.15,-0.03 0.14,-0.03 0.14,-0.03 0.14,-0.02 0.13,-0.03 0.12,-0.02 0.13,-0.02 0.12,-0.01 0.11,-0.02 0.12,-0.01 0.11,-0.02 0.1,-0.01 0.1,-0.01 0.1,-0.01 h 0.1 l 0.09,-0.01 0.09,-0.01 h 0.08 0.08 l 0.08,-0.01 h 0.08 0.07 0.07 0.06 0.07 0.06 0.05 l 0.06,-0.01 c 4.59,0 7.31,3.15 7.31,3.68 0,0.37 -0.23,0.48 -0.41,0.48 -0.07,0 -0.14,0 -0.28,-0.11 -0.84,-0.31 -2.69,-1.01 -5.26,-1.01 -0.97,0 -2.83,0.07 -5.1,0.95 -0.34,0.17 -0.4,0.17 -0.45,0.17 -0.45,0 -0.45,-0.39 -0.45,-0.94 v -10.28 c 0,-0.59 0,-1.01 0.56,-1.01 0.31,0 0.34,0.06 0.7,0.48 1.5,1.92 3.63,2.2 4.85,2.2 2.08,0 3.03,-1.67 3.2,-1.95 0.63,-1.16 0.83,-2.47 0.83,-4.5 0,-1.05 0,-3.09 -1.05,-4.62 -0.86,-1.27 -2.36,-2.1 -4.06,-2.1 -2.27,0 -4.61,1.25 -5.49,3.55 1.33,-0.09 1.99,0.76 1.99,1.7 0,1.5 -1.28,1.78 -1.74,1.78 -0.06,0 -1.75,0 -1.75,-1.87 0,-3.14 2.86,-6.28 7.05,-6.28 4.45,0 8.36,3.31 8.36,7.7 0,3.94 -3,7.56 -7.31,7.56 -1.53,0 -3.35,-0.37 -4.88,-1.7 z"
           inkscape:connector-curvature="0"
           style="fill:#000000;stroke-width:0" /><path
           id="path10682"
           d="m 499.04,407.22 0.03,0.11 0.03,0.12 0.02,0.1 0.03,0.1 0.03,0.1 0.04,0.09 0.03,0.08 0.04,0.08 0.04,0.08 0.04,0.07 0.05,0.07 0.06,0.06 0.06,0.06 0.07,0.06 0.07,0.05 0.09,0.05 0.09,0.04 0.1,0.04 0.11,0.04 0.12,0.03 0.07,0.02 0.06,0.01 0.07,0.02 0.08,0.01 0.07,0.01 0.08,0.01 0.08,0.01 0.09,0.01 0.09,0.01 0.09,0.01 0.1,0.01 0.1,0.01 h 0.1 l 0.11,0.01 0.11,0.01 h 0.11 0.12 l 0.12,0.01 h 0.13 0.13 l 0.13,0.01 h 0.14 0.15 0.14 c 1.08,0 1.43,0 1.43,0.76 0,0.03 -0.04,0.49 -0.6,0.49 -0.79,0 -1.73,-0.06 -2.58,-0.11 -0.87,-0.03 -1.9,-0.03 -2.78,-0.03 -0.73,0 -1.67,0.03 -2.4,0.03 -0.74,0 -1.57,0.11 -2.27,0.11 -0.2,0 -0.73,0 -0.73,-0.77 0,-0.48 0.42,-0.48 1.12,-0.48 0.03,0 0.69,0 1.31,-0.08 0.74,-0.06 0.82,-0.14 0.82,-0.48 0,-0.07 0,-0.24 -0.14,-0.77 L 491.2,389 c -0.32,-1.19 -0.4,-1.47 -3.07,-1.47 -0.59,0 -1.04,0 -1.04,-0.73 0,-0.52 0.42,-0.52 1.04,-0.52 h 17.52 c 0.87,0 0.9,0.03 1.19,0.7 0.36,0.94 2.96,7.69 2.96,7.97 0,0.11 -0.07,0.5 -0.59,0.5 -0.42,0 -0.48,-0.18 -0.7,-0.73 -1.31,-3.31 -2.86,-7.19 -9.24,-7.19 h -3.93 c -1.08,0 -1.11,0.05 -1.11,0.36 0,0.03 0,0.2 0.14,0.72 z"
           inkscape:connector-curvature="0"
           style="fill:#000000;stroke-width:0" /><path
           id="path10684"
           d="m 609.09,449.98 v 0 0.01 h 0.01 v 0.01 0 0.01 h 0.01 v 0.01 0.01 0.01 l 0.01,0.01 0.01,0.02 v 0.02 l 0.01,0.02 v 0.02 l 0.01,0.02 v 0.02 l 0.01,0.03 0.01,0.02 0.01,0.05 v 0.02 l 0.01,0.02 v 0.02 l 0.01,0.03 v 0.02 l 0.01,0.02 v 0.02 0.02 l 0.01,0.01 v 0.02 0.01 0 0.01 l 0.01,0.01 v 0 0.01 0 0.01 0 0 0.01 0 c 0,0.18 -0.14,0.5 -0.55,0.5 -0.7,0 -3.59,-0.28 -4.46,-0.36 -0.29,-0.03 -0.77,-0.06 -0.77,-0.8 0,-0.48 0.48,-0.48 0.9,-0.48 1.68,0 1.68,-0.25 1.68,-0.53 0,-0.24 -0.06,-0.46 -0.14,-0.77 l -1.99,-7.94 c -0.73,1.14 -1.92,2.05 -3.59,2.05 v -0.97 c 2.44,0 3.11,-2.64 3.11,-3.03 0,-0.14 -0.08,-0.39 -0.11,-0.49 l -1.64,-6.51 c -0.24,-0.99 -1,-1.67 -1.77,-2.34 -0.31,-0.27 -1.72,-1.4 -3.22,-1.4 -1.28,0 -2.53,0.91 -2.53,3.38 0,1.86 1,5.69 1.82,7.08 1.59,2.79 3.37,3.31 4.34,3.31 v 0.97 c -4.46,0 -8.99,-4.91 -8.99,-9.92 0,-3.38 2.27,-5.78 5.27,-5.78 1.88,0 3.55,1.07 4.94,2.43 0.67,-2.09 2.69,-2.43 3.59,-2.43 1.25,0 2.13,0.76 2.75,1.84 0.77,1.36 1.22,3.34 1.22,3.48 0,0.46 -0.45,0.46 -0.55,0.46 -0.5,0 -0.53,-0.14 -0.76,-1.08 -0.43,-1.67 -1.1,-3.74 -2.55,-3.74 -0.91,0 -1.16,0.77 -1.16,1.71 0,0.67 0.08,0.98 0.18,1.44 z"
           inkscape:connector-curvature="0"
           style="fill:#000000;stroke-width:0" /><path
           id="path10686"
           d="m 592.27,409.97 h 0.16 0.16 l 0.15,0.01 h 0.08 l 0.08,0.01 0.07,0.01 h 0.08 l 0.07,0.01 0.07,0.02 0.07,0.01 0.07,0.02 0.07,0.02 0.06,0.02 0.06,0.02 0.06,0.03 0.06,0.03 0.05,0.04 0.05,0.04 0.04,0.04 0.05,0.04 0.04,0.05 0.01,0.03 0.02,0.03 0.02,0.03 0.01,0.03 0.01,0.03 0.02,0.03 0.01,0.04 0.01,0.03 0.01,0.04 0.01,0.04 v 0.04 l 0.01,0.04 v 0.04 l 0.01,0.04 v 0.05 0.04 c 0,1 -0.91,1 -1.75,1 h -26.95 c -0.85,0 -1.74,0 -1.74,-1 0,-1 0.89,-1 1.74,-1 z"
           inkscape:connector-curvature="0"
           style="fill:#000000;stroke-width:0" /><path
           id="path10688"
           d="m 631.47,409.97 -0.26,-0.19 -0.24,-0.2 -0.24,-0.19 -0.23,-0.2 -0.22,-0.19 -0.21,-0.19 -0.2,-0.19 -0.2,-0.19 -0.19,-0.18 -0.19,-0.18 -0.17,-0.18 -0.17,-0.18 -0.16,-0.17 -0.15,-0.17 -0.15,-0.17 -0.14,-0.16 -0.13,-0.15 -0.13,-0.16 -0.12,-0.15 -0.11,-0.14 -0.11,-0.14 -0.1,-0.13 -0.09,-0.13 -0.09,-0.12 -0.08,-0.11 -0.08,-0.11 -0.07,-0.11 -0.06,-0.09 -0.06,-0.09 -0.05,-0.08 -0.05,-0.07 -0.04,-0.07 c -2.23,-3.44 -2.64,-6.58 -2.64,-6.62 0,-0.6 0.61,-0.6 1,-0.6 0.84,0 0.89,0.1 1.09,1 1.16,4.88 4.1,9.07 9.72,11.36 0.6,0.19 0.75,0.3 0.75,0.64 0,0.35 -0.3,0.5 -0.4,0.55 -2.19,0.84 -8.22,3.34 -10.11,11.72 -0.16,0.59 -0.21,0.73 -1.05,0.73 -0.39,0 -1,0 -1,-0.59 0,-0.09 0.45,-3.24 2.55,-6.58 1,-1.48 2.43,-3.23 4.58,-4.83 h -37.02 c -0.89,0 -1.8,0 -1.8,-1 0,-1 0.91,-1 1.8,-1 z"
           inkscape:connector-curvature="0"
           style="fill:#000000;stroke-width:0" /><path
           id="path10690"
           d="m 682.16,426.86 -0.01,0.35 -0.03,0.35 -0.03,0.33 -0.06,0.34 -0.07,0.33 -0.08,0.32 -0.1,0.32 -0.11,0.31 -0.13,0.3 -0.14,0.29 -0.15,0.29 -0.17,0.27 -0.18,0.27 -0.19,0.26 -0.21,0.25 -0.21,0.24 -0.23,0.22 -0.24,0.22 -0.25,0.2 -0.27,0.2 -0.27,0.17 -0.28,0.17 -0.3,0.15 -0.3,0.14 -0.31,0.12 -0.33,0.11 -0.33,0.09 -0.34,0.08 -0.35,0.06 -0.36,0.05 -0.36,0.02 -0.38,0.01 c -2.89,0 -4.28,-0.8 -6.03,-2.09 -2.74,-1.99 -5.48,-6.83 -6.42,-10.61 l -7.92,-31.64 c -0.07,-0.19 0.18,-0.5 0.59,-0.5 0.39,0 0.55,0.11 0.59,0.25 l 3.49,13.75 c 0.95,-2.99 3.14,-4.83 6.78,-4.83 l -0.16,1.09 c -3.78,0 -5.67,2.89 -5.67,6.44 0,0.49 0,1.24 0.25,2.19 l 3.19,12.61 c 1.09,4.28 4.69,12.2 10.65,12.2 2.89,0 4.65,-1.55 4.65,-4.53 v 0 c 0,-3.5 -1.9,-7.08 -4.49,-8.63 -1.34,0.5 -2.34,0.6 -3.84,0.6 -1.05,0 -3.83,0.05 -3.83,-1.6 -0.05,-1.39 2.53,-1.23 3.44,-1.23 l 0.14,1.09 c -0.69,0 -1.69,-0.06 -2.19,0.19 0.11,0.5 1.89,0.41 2.44,0.41 1.04,0 1.5,0 2.14,-0.25 v 0 c -0.64,-0.25 -1.19,-0.35 -2.39,-0.35 l -0.14,-1.09 c 1.84,0 2.59,0.05 4.07,0.64 1.89,-1.8 2.15,-3.34 2.21,-5.62 0.09,-2.89 -1.11,-6.63 -2.5,-8.58 -1.94,-2.69 -5.28,-4.49 -8.13,-4.49 l 0.16,-1.09 c 3.64,0 7.37,1.75 9.61,3.94 2.39,2.29 4,5.48 4,9.17 0,3.58 -1.85,6.17 -3.64,7.42 2.89,1.64 5.72,4.74 5.72,8.31 z"
           inkscape:connector-curvature="0"
           style="fill:#000000;stroke-width:0" /><path
           id="path10692"
           d="m 696.08,412.02 0.03,0.11 0.03,0.11 0.02,0.11 0.03,0.1 0.03,0.09 0.03,0.09 0.04,0.09 0.04,0.08 0.04,0.08 0.04,0.07 0.05,0.07 0.06,0.06 0.06,0.06 0.07,0.06 0.07,0.05 0.09,0.04 0.09,0.05 0.1,0.04 0.11,0.04 0.12,0.03 0.07,0.01 0.06,0.02 0.07,0.01 0.08,0.02 0.07,0.01 0.08,0.01 0.08,0.01 0.09,0.01 0.09,0.01 0.09,0.01 0.1,0.01 h 0.1 l 0.1,0.01 0.11,0.01 h 0.11 l 0.11,0.01 h 0.12 l 0.12,0.01 h 0.13 0.13 0.13 0.14 0.15 0.14 c 1.08,0 1.42,0 1.42,0.77 0,0.03 -0.03,0.49 -0.59,0.49 -0.8,0 -1.73,-0.07 -2.58,-0.11 -0.87,-0.04 -1.9,-0.04 -2.78,-0.04 -0.73,0 -1.67,0.04 -2.4,0.04 -0.74,0 -1.57,0.11 -2.27,0.11 -0.2,0 -0.73,0 -0.73,-0.77 0,-0.49 0.42,-0.49 1.12,-0.49 0.03,0 0.69,0 1.31,-0.07 0.74,-0.07 0.82,-0.14 0.82,-0.49 0,-0.06 0,-0.23 -0.14,-0.76 l -4.65,-18.5 c -0.31,-1.19 -0.39,-1.47 -3.06,-1.47 -0.59,0 -1.05,0 -1.05,-0.74 0,-0.51 0.43,-0.51 1.05,-0.51 h 17.52 c 0.87,0 0.9,0.03 1.19,0.7 0.35,0.94 2.96,7.69 2.96,7.97 0,0.11 -0.07,0.5 -0.59,0.5 -0.42,0 -0.48,-0.19 -0.7,-0.73 -1.32,-3.32 -2.86,-7.19 -9.24,-7.19 h -3.93 c -1.08,0 -1.11,0.05 -1.11,0.36 0,0.03 0,0.2 0.14,0.72 z"
           inkscape:connector-curvature="0"
           style="fill:#000000;stroke-width:0" /><path
           id="path10694"
           d="m 759.02,423.33 0.06,0.03 0.05,0.03 0.06,0.02 0.05,0.03 0.05,0.03 0.05,0.03 0.04,0.02 0.05,0.03 0.04,0.03 0.04,0.03 0.04,0.03 0.04,0.02 0.04,0.03 0.03,0.03 0.04,0.03 0.03,0.04 0.03,0.03 0.03,0.03 0.02,0.03 0.03,0.04 0.02,0.03 0.02,0.04 0.02,0.04 0.01,0.04 0.02,0.04 0.01,0.04 0.01,0.04 0.01,0.04 0.01,0.05 v 0.05 l 0.01,0.05 v 0.05 c 0,0.54 -0.46,1 -1,1 -0.14,0 -0.25,0 -0.89,-0.35 l -27.61,-13.01 c -0.55,-0.25 -0.94,-0.5 -0.94,-1.1 0,-0.59 0.39,-0.84 0.94,-1.09 l 27.61,-13 c 0.64,-0.36 0.75,-0.36 0.89,-0.36 0.54,0 1,0.45 1,1 0,0.55 -0.35,0.8 -0.96,1.09 l -26.15,12.36 z"
           inkscape:connector-curvature="0"
           style="fill:#000000;stroke-width:0" /><path
           id="path10696"
           d="m 803.27,412.02 -0.25,0.31 -0.23,0.3 -0.22,0.28 -0.22,0.26 -0.2,0.26 -0.19,0.24 -0.19,0.23 -0.17,0.22 -0.17,0.2 -0.16,0.2 -0.16,0.19 -0.15,0.17 -0.14,0.17 -0.14,0.17 -0.13,0.15 -0.13,0.15 -0.12,0.14 -0.13,0.13 -0.12,0.13 -0.12,0.13 -0.23,0.23 -0.24,0.23 -0.23,0.22 -0.25,0.22 -0.26,0.22 -0.14,0.11 -0.14,0.11 c -2.79,2.25 -5.59,3.15 -8.12,3.15 -5.83,0 -9.63,-5.47 -9.63,-11.3 h 1.11 c 0,4.87 3.33,8.9 7.72,8.9 2.89,0 5.13,-2.09 6.17,-3.14 1.25,-1.34 2.39,-2.89 5.44,-6.81 v 0 c -2.05,-3.59 -5.73,-8.62 -11.36,-8.62 -5.28,0 -7.97,5.18 -7.97,9.67 h -1.11 c 0,-5.74 3.69,-11.27 9.42,-11.27 5.74,0 9.86,4.53 12.32,8.52 2.68,-3.39 3.28,-4.13 4.82,-5.38 2.78,-2.25 5.58,-3.14 8.13,-3.14 5.83,0 9.61,5.49 9.61,11.32 h -1.09 c 0,-4.9 -3.35,-8.93 -7.72,-8.93 -2.9,0 -5.15,2.1 -6.19,3.14 -1.24,1.35 -2.39,2.89 -5.42,6.83 v 0 c 2.03,3.58 5.71,8.61 11.36,8.61 5.28,0 7.97,-5.17 7.97,-9.65 h 1.09 c 0,5.71 -3.69,11.25 -9.42,11.25 -5.72,0 -9.86,-4.54 -12.3,-8.52 z"
           inkscape:connector-curvature="0"
           style="fill:#000000;stroke-width:0" /></g>    </g>
  </g>
</svg>
